<svg id="visual" viewBox="0 0 900 600" width="900" height="600" xmlns="http://www.w3.org/2000/svg" xmlns:xlink="http://www.w3.org/1999/xlink" version="1.1"><rect x="0" y="0" width="900" height="600" fill="#595037"></rect><path d="M0 402L129 446L257 358L386 374L514 385L643 429L771 446L900 406L900 601L771 601L643 601L514 601L386 601L257 601L129 601L0 601Z" fill="#f5730a"></path><path d="M0 428L129 460L257 419L386 440L514 409L643 418L771 480L900 453L900 601L771 601L643 601L514 601L386 601L257 601L129 601L0 601Z" fill="#c6710f"></path><path d="M0 442L129 459L257 475L386 462L514 494L643 475L771 447L900 470L900 601L771 601L643 601L514 601L386 601L257 601L129 601L0 601Z" fill="#9c6a1e"></path><path d="M0 520L129 497L257 539L386 531L514 536L643 505L771 486L900 534L900 601L771 601L643 601L514 601L386 601L257 601L129 601L0 601Z" fill="#785e2b"></path><path d="M0 535L129 544L257 527L386 561L514 535L643 560L771 540L900 531L900 601L771 601L643 601L514 601L386 601L257 601L129 601L0 601Z" fill="#595037"></path></svg>